CATALOG 4964808500840
FILE "Neo-Geo CD Special (1995)(SNK)(JP)(Track 01 of 50).iso" BINARY
  TRACK 01 MODE1/2048
    FLAGS DCP
    INDEX 01 00:00:00
FILE "Neo-Geo CD Special (1995)(SNK)(JP)(Track 02 of 50).wav" WAVE
  TRACK 02 AUDIO
    FLAGS DCP
    PREGAP 00:03:00
    INDEX 01 00:00:00
FILE "Neo-Geo CD Special (1995)(SNK)(JP)(Track 03 of 50).wav" WAVE
  TRACK 03 AUDIO
    FLAGS DCP
    INDEX 01 00:00:00
FILE "Neo-Geo CD Special (1995)(SNK)(JP)(Track 04 of 50).wav" WAVE
  TRACK 04 AUDIO
    FLAGS DCP
    INDEX 01 00:00:00
FILE "Neo-Geo CD Special (1995)(SNK)(JP)(Track 05 of 50).wav" WAVE
  TRACK 05 AUDIO
    FLAGS DCP
    INDEX 01 00:00:00
FILE "Neo-Geo CD Special (1995)(SNK)(JP)(Track 06 of 50).wav" WAVE
  TRACK 06 AUDIO
    FLAGS DCP
    INDEX 01 00:00:00
FILE "Neo-Geo CD Special (1995)(SNK)(JP)(Track 07 of 50).wav" WAVE
  TRACK 07 AUDIO
    FLAGS DCP
    INDEX 01 00:00:00
FILE "Neo-Geo CD Special (1995)(SNK)(JP)(Track 08 of 50).wav" WAVE
  TRACK 08 AUDIO
    FLAGS DCP
    INDEX 01 00:00:00
FILE "Neo-Geo CD Special (1995)(SNK)(JP)(Track 09 of 50).wav" WAVE
  TRACK 09 AUDIO
    FLAGS DCP
    INDEX 01 00:00:00
FILE "Neo-Geo CD Special (1995)(SNK)(JP)(Track 10 of 50).wav" WAVE
  TRACK 10 AUDIO
    FLAGS DCP
    INDEX 01 00:00:00
FILE "Neo-Geo CD Special (1995)(SNK)(JP)(Track 11 of 50).wav" WAVE
  TRACK 11 AUDIO
    FLAGS DCP
    INDEX 01 00:00:00
FILE "Neo-Geo CD Special (1995)(SNK)(JP)(Track 12 of 50).wav" WAVE
  TRACK 12 AUDIO
    FLAGS DCP
    INDEX 01 00:00:00
FILE "Neo-Geo CD Special (1995)(SNK)(JP)(Track 13 of 50).wav" WAVE
  TRACK 13 AUDIO
    FLAGS DCP
    INDEX 01 00:00:00
FILE "Neo-Geo CD Special (1995)(SNK)(JP)(Track 14 of 50).wav" WAVE
  TRACK 14 AUDIO
    FLAGS DCP
    INDEX 01 00:00:00
FILE "Neo-Geo CD Special (1995)(SNK)(JP)(Track 15 of 50).wav" WAVE
  TRACK 15 AUDIO
    FLAGS DCP
    INDEX 01 00:00:00
FILE "Neo-Geo CD Special (1995)(SNK)(JP)(Track 16 of 50).wav" WAVE
  TRACK 16 AUDIO
    FLAGS DCP
    INDEX 01 00:00:00
FILE "Neo-Geo CD Special (1995)(SNK)(JP)(Track 17 of 50).wav" WAVE
  TRACK 17 AUDIO
    FLAGS DCP
    INDEX 01 00:00:00
FILE "Neo-Geo CD Special (1995)(SNK)(JP)(Track 18 of 50).wav" WAVE
  TRACK 18 AUDIO
    FLAGS DCP
    INDEX 01 00:00:00
FILE "Neo-Geo CD Special (1995)(SNK)(JP)(Track 19 of 50).wav" WAVE
  TRACK 19 AUDIO
    FLAGS DCP
    INDEX 01 00:00:00
FILE "Neo-Geo CD Special (1995)(SNK)(JP)(Track 20 of 50).wav" WAVE
  TRACK 20 AUDIO
    FLAGS DCP
    INDEX 01 00:00:00
FILE "Neo-Geo CD Special (1995)(SNK)(JP)(Track 21 of 50).wav" WAVE
  TRACK 21 AUDIO
    FLAGS DCP
    INDEX 01 00:00:00
FILE "Neo-Geo CD Special (1995)(SNK)(JP)(Track 22 of 50).wav" WAVE
  TRACK 22 AUDIO
    FLAGS DCP
    INDEX 01 00:00:00
FILE "Neo-Geo CD Special (1995)(SNK)(JP)(Track 23 of 50).wav" WAVE
  TRACK 23 AUDIO
    FLAGS DCP
    INDEX 01 00:00:00
FILE "Neo-Geo CD Special (1995)(SNK)(JP)(Track 24 of 50).wav" WAVE
  TRACK 24 AUDIO
    FLAGS DCP
    INDEX 01 00:00:00
FILE "Neo-Geo CD Special (1995)(SNK)(JP)(Track 25 of 50).wav" WAVE
  TRACK 25 AUDIO
    FLAGS DCP
    INDEX 01 00:00:00
FILE "Neo-Geo CD Special (1995)(SNK)(JP)(Track 26 of 50).wav" WAVE
  TRACK 26 AUDIO
    FLAGS DCP
    INDEX 01 00:00:00
FILE "Neo-Geo CD Special (1995)(SNK)(JP)(Track 27 of 50).wav" WAVE
  TRACK 27 AUDIO
    FLAGS DCP
    INDEX 01 00:00:00
FILE "Neo-Geo CD Special (1995)(SNK)(JP)(Track 28 of 50).wav" WAVE
  TRACK 28 AUDIO
    FLAGS DCP
    INDEX 01 00:00:00
FILE "Neo-Geo CD Special (1995)(SNK)(JP)(Track 29 of 50).wav" WAVE
  TRACK 29 AUDIO
    FLAGS DCP
    INDEX 01 00:00:00
FILE "Neo-Geo CD Special (1995)(SNK)(JP)(Track 30 of 50).wav" WAVE
  TRACK 30 AUDIO
    FLAGS DCP
    INDEX 01 00:00:00
FILE "Neo-Geo CD Special (1995)(SNK)(JP)(Track 31 of 50).wav" WAVE
  TRACK 31 AUDIO
    FLAGS DCP
    INDEX 01 00:00:00
FILE "Neo-Geo CD Special (1995)(SNK)(JP)(Track 32 of 50).wav" WAVE
  TRACK 32 AUDIO
    FLAGS DCP
    INDEX 01 00:00:00
FILE "Neo-Geo CD Special (1995)(SNK)(JP)(Track 33 of 50).wav" WAVE
  TRACK 33 AUDIO
    FLAGS DCP
    INDEX 01 00:00:00
FILE "Neo-Geo CD Special (1995)(SNK)(JP)(Track 34 of 50).wav" WAVE
  TRACK 34 AUDIO
    FLAGS DCP
    INDEX 01 00:00:00
FILE "Neo-Geo CD Special (1995)(SNK)(JP)(Track 35 of 50).wav" WAVE
  TRACK 35 AUDIO
    FLAGS DCP
    INDEX 01 00:00:00
FILE "Neo-Geo CD Special (1995)(SNK)(JP)(Track 36 of 50).wav" WAVE
  TRACK 36 AUDIO
    FLAGS DCP
    INDEX 01 00:00:00
FILE "Neo-Geo CD Special (1995)(SNK)(JP)(Track 37 of 50).wav" WAVE
  TRACK 37 AUDIO
    FLAGS DCP
    INDEX 01 00:00:00
FILE "Neo-Geo CD Special (1995)(SNK)(JP)(Track 38 of 50).wav" WAVE
  TRACK 38 AUDIO
    FLAGS DCP
    INDEX 01 00:00:00
FILE "Neo-Geo CD Special (1995)(SNK)(JP)(Track 39 of 50).wav" WAVE
  TRACK 39 AUDIO
    FLAGS DCP
    INDEX 01 00:00:00
FILE "Neo-Geo CD Special (1995)(SNK)(JP)(Track 40 of 50).wav" WAVE
  TRACK 40 AUDIO
    FLAGS DCP
    INDEX 01 00:00:00
FILE "Neo-Geo CD Special (1995)(SNK)(JP)(Track 41 of 50).wav" WAVE
  TRACK 41 AUDIO
    FLAGS DCP
    INDEX 01 00:00:00
FILE "Neo-Geo CD Special (1995)(SNK)(JP)(Track 42 of 50).wav" WAVE
  TRACK 42 AUDIO
    FLAGS DCP
    INDEX 01 00:00:00
FILE "Neo-Geo CD Special (1995)(SNK)(JP)(Track 43 of 50).wav" WAVE
  TRACK 43 AUDIO
    FLAGS DCP
    INDEX 01 00:00:00
FILE "Neo-Geo CD Special (1995)(SNK)(JP)(Track 44 of 50).wav" WAVE
  TRACK 44 AUDIO
    FLAGS DCP
    INDEX 01 00:00:00
FILE "Neo-Geo CD Special (1995)(SNK)(JP)(Track 45 of 50).wav" WAVE
  TRACK 45 AUDIO
    FLAGS DCP
    INDEX 01 00:00:00
FILE "Neo-Geo CD Special (1995)(SNK)(JP)(Track 46 of 50).wav" WAVE
  TRACK 46 AUDIO
    FLAGS DCP
    INDEX 01 00:00:00
FILE "Neo-Geo CD Special (1995)(SNK)(JP)(Track 47 of 50).wav" WAVE
  TRACK 47 AUDIO
    FLAGS DCP
    INDEX 01 00:00:00
FILE "Neo-Geo CD Special (1995)(SNK)(JP)(Track 48 of 50).wav" WAVE
  TRACK 48 AUDIO
    FLAGS DCP
    INDEX 01 00:00:00
FILE "Neo-Geo CD Special (1995)(SNK)(JP)(Track 49 of 50).wav" WAVE
  TRACK 49 AUDIO
    FLAGS DCP
    INDEX 01 00:00:00
FILE "Neo-Geo CD Special (1995)(SNK)(JP)(Track 50 of 50).wav" WAVE
  TRACK 50 AUDIO
    FLAGS DCP
    INDEX 01 00:00:00
